<svg width="317" height="62" viewBox="0 0 317 62" fill="none" xmlns="http://www.w3.org/2000/svg">
<path d="M278.4 9.70622C278.4 9.70622 288.5 -7.19377 308.7 3.60623C322.3 10.8062 317.1 29.7062 307.7 40.3062C297 52.3062 278.4 61.8062 278.4 61.8062C278.4 61.8062 259.9 52.2062 249.1 40.3062C239.7 29.8062 234.5 10.9062 248.1 3.60623C268.3 -7.19377 278.4 9.70622 278.4 9.70622Z" fill="#D72B25"/>
<path d="M254.9 39.1062C253.6 39.1062 252.5 38.2062 252.5 36.9062C252.5 35.6062 253.6 34.6062 254.9 34.6062C256.3 34.6062 257.3 35.7062 257.3 37.0062C257.3 37.8062 256.6 39.1062 254.9 39.1062Z" fill="white"/>
<path d="M260.1 18.6063L263.2 17.4062V22.3063L263.4 22.6063C263.7 22.5063 263.7 22.5063 264 22.2063C265.9 19.9063 266.1 19.7062 267 18.9062C267.7 18.4062 268.7 17.6063 270.4 17.6063C273.6 17.6063 274 20.2063 274.2 22.1063L274.3 22.2063H274.4C274.6 22.1063 274.8 21.7063 275 21.5063C277.9 18.5063 279.4 17.5063 281.4 17.5063C281.9 17.5063 283.3 17.6063 284.3 18.9062C284.9 19.7062 285.1 20.4063 285.1 23.6063V38.7063H281.7V24.0063C281.7 22.3063 281.7 20.3063 279.6 20.3063C278.1 20.3063 276.6 22.1063 274.3 25.0063V38.7063H270.9V23.4062C270.9 20.6063 269.9 20.4062 269 20.4062C268.2 20.4062 267.6 20.7063 266.2 22.0063C265.6 22.6063 265.3 22.9062 263.5 25.4062V38.8063H260.1V18.6063Z" fill="white"/>
<path d="M305.499 28.7063H293.199C293.199 33.3063 294.499 36.4063 298.199 36.4063C300.599 36.4063 301.799 35.3063 302.399 34.7063L304.499 36.6064C303.199 37.8064 301.499 39.2063 297.799 39.2063C292.999 39.2063 289.699 35.4063 289.699 28.9063C289.699 18.4063 295.899 17.5063 297.799 17.5063C302.799 17.5063 305.399 21.7064 305.599 26.8064L305.499 28.7063ZM301.899 26.2063C301.899 22.6063 300.599 20.0063 297.699 20.0063C295.999 20.0063 294.699 21.0064 293.999 22.6064C293.399 24.1064 293.299 25.5063 293.299 26.2063H301.899Z" fill="white"/>
<path d="M23.3998 14.8062C22.8998 10.5062 20.8998 6.60616 15.9998 6.60616C11.5998 6.60616 9.69981 10.0061 8.69981 12.4061C7.09981 16.4061 6.8998 22.6061 6.8998 23.0061C6.8998 32.7062 8.6998 42.2061 15.9998 42.2061C19.4998 42.2061 21.2998 39.7062 21.8998 38.8062C23.0998 36.7062 23.3998 34.2062 23.4998 32.8062L29.4998 33.9061C29.2998 37.4061 27.9998 41.2061 25.2998 43.9061C21.4998 47.7061 17.0998 47.7061 15.3998 47.7061C11.7998 47.7061 0.799805 45.8061 0.799805 24.5061C0.799805 14.3061 3.39981 1.30615 15.8998 1.30615C18.6998 1.30615 22.3998 2.10614 25.1998 4.90614C28.1998 8.00614 28.7998 11.5062 29.0998 13.6062L23.3998 14.8062Z" fill="#404041"/>
<path d="M38.0996 3.2061L43.4996 1.0061V19.6061C43.4996 20.0061 43.5996 20.2061 43.9996 20.2061C44.2996 20.2061 44.9996 19.1061 45.4996 18.3061C47.8996 14.8061 50.7996 13.9061 53.4996 13.9061C57.9996 13.9061 59.7996 17.0061 59.7996 21.6061V46.3061H54.3996V21.7061C54.3996 19.4061 53.6996 17.9061 51.3996 17.9061C50.2996 17.9061 48.9996 18.4061 47.8996 19.4061C46.2996 20.7061 44.6996 23.1061 43.4996 24.8061V46.3061H38.0996V3.2061Z" fill="#404041"/>
<path d="M78.9999 13.906C84.9999 13.906 87.8999 17.006 89.4999 20.106C90.9999 22.906 91.8999 27.506 91.8999 30.606C91.8999 40.106 87.0999 46.906 79.2999 46.906C73.7999 46.906 71.4999 44.106 70.2999 42.506C67.8999 39.506 66.8999 35.206 66.8999 29.806C66.8999 18.906 72.4999 13.906 78.9999 13.906ZM72.1999 30.906C72.1999 33.306 72.9999 42.306 79.2999 42.306C85.0999 42.306 86.0999 34.906 86.0999 30.406C86.0999 28.306 85.6999 25.006 84.9999 22.906C84.2999 20.806 82.8999 19.506 81.4999 18.906C80.7999 18.606 79.9999 18.506 79.1999 18.506C73.2999 18.406 72.1999 26.006 72.1999 30.906Z" fill="#404041"/>
<path d="M114 23.4061C113.5 22.0061 112.3 18.4061 108.6 18.4061C104.8 18.4061 102 22.3061 102 28.9061C102 31.6061 102.2 35.0061 103 37.2061C103.8 39.5061 105.7 42.3061 109.1 42.3061C112.4 42.3061 114 39.5061 114.5 36.3061L119.3 38.5061C118.3 43.7061 114.5 47.0061 109.1 47.0061C96.9997 47.0061 96.6997 32.8061 96.6997 31.0061C96.6997 28.0061 96.6997 23.0061 99.8997 18.5061C102.7 14.7061 106.2 14.0061 108.4 14.0061C109.7 14.0061 114 14.4061 116.5 17.7061C117.7 19.2061 117.9 19.6061 118.6 21.1061L114 23.4061Z" fill="#404041"/>
<path d="M136.1 13.906C142.1 13.906 145 17.006 146.6 20.106C148.1 22.906 149 27.506 149 30.606C149 40.106 144.2 46.906 136.4 46.906C130.9 46.906 128.6 44.106 127.4 42.506C125 39.506 124 35.206 124 29.806C124 18.906 129.6 13.906 136.1 13.906ZM129.3 30.906C129.3 33.306 130.1 42.306 136.4 42.306C142.2 42.306 143.2 34.906 143.2 30.406C143.2 28.306 142.8 25.006 142.1 22.906C141.4 20.806 140 19.506 138.6 18.906C137.9 18.606 137.1 18.506 136.3 18.506C130.4 18.406 129.3 26.006 129.3 30.906Z" fill="#404041"/>
<path d="M157.3 3.20615L162 1.30615H162.8V46.4061H157.3V3.20615Z" fill="#404041"/>
<path d="M173.399 3.1062H180.399V8.8062H173.399V3.1062ZM174.199 14.7062H179.599V46.3062H174.199V14.7062Z" fill="#404041"/>
<path d="M187.7 17.3061H192.1V10.3061C192.1 8.10606 192.1 5.80605 194.5 3.40605C196.4 1.50605 199.1 1.20605 200.7 1.20605C201.9 1.20605 203.8 1.30606 205.4 2.00606V6.60606C204.6 6.20606 203.4 5.60606 201.8 5.60606C197.9 5.60606 197.9 8.80605 197.9 10.4061V17.1061H203.5V20.7061H197.9V46.2061H192.2V20.7061H187.8V17.3061H187.7Z" fill="#404041"/>
<path d="M232.3 31.1061H213.5C213.4 38.2061 215.5 42.9061 221.1 42.9061C224.8 42.9061 226.5 41.1061 227.5 40.2061L230.6 43.1061C228.5 44.9061 226.1 47.1061 220.3 47.1061C213 47.1061 207.8 41.3061 207.8 31.4061C207.8 15.3061 217.4 14.0061 220.2 14.0061C227.8 14.0061 231.9 20.5061 232.1 28.2061L232.3 31.1061ZM226.8 27.4061C226.8 22.0061 224.7 17.9061 220.4 17.9061C217.8 17.9061 215.7 19.5061 214.7 21.9061C213.7 24.2061 213.7 26.3061 213.6 27.4061H226.8Z" fill="#404041"/>
</svg> 
